<svg xmlns="http://www.w3.org/2000/svg" width="328" height="190" fill="none"><g clip-path="url(#a)"><path fill="#363739" d="M263 99a99 99 0 00-198 0h198z"/><rect width="186.87" height="55.8" x="70.56" y="23.1" fill="#1D1F20" rx="11.9"/><rect width="186.87" height="55.8" x="70.56" y="23.1" stroke="#46484B" stroke-width=".2" rx="11.9"/><rect width="36" height="36" x="80.46" y="33" fill="#28292A" rx="6.13"/><rect width="99.07" height="14" x="124.46" y="33" fill="#28292A" rx="3"/><rect width="64" height="18" x="124.46" y="51" fill="#28292A" rx="3"/><rect width="26" height="18" x="194.59" y="51" fill="#052F01" rx="3"/><path fill="#78C86B" d="M198.36 60.46v-1.09h3v1.09h-3zm6.1 2.62c-1.2 0-2.08-.62-2.42-1.46l1-.44c.21.51.65.82 1.34.82.65 0 1.18-.4 1.18-1.02 0-.54-.43-1.03-1.29-1.03h-.52v-.98h.63c.72 0 1-.43 1-.91 0-.55-.46-.93-1.03-.93-.57 0-.9.25-1.13.6l-.93-.5c.33-.68 1.1-1.17 2.1-1.17 1.2 0 2.16.66 2.16 1.82a1.7 1.7 0 01-.9 1.54v.03c.65.3 1.1.89 1.1 1.69 0 1.17-.98 1.94-2.29 1.94zm6.67.14l-.9-.39 3.14-7.08.9.39-3.14 7.08zm-1.54-3.43a1.95 1.95 0 01-2.02-1.99c0-1.09.81-1.98 2.02-1.98 1.1 0 2.01.79 2.01 1.98 0 1.09-.8 1.99-2 1.99zm0-.85c.65 0 1.07-.51 1.07-1.13 0-.67-.47-1.12-1.07-1.12-.63 0-1.05.5-1.05 1.12 0 .67.47 1.13 1.05 1.13zm5.3 4.14c-1.1 0-2.02-.8-2.02-1.99 0-1.09.81-1.98 2.01-1.98 1.11 0 2.02.79 2.02 1.98 0 1.09-.8 1.99-2.02 1.99zm0-.86c.64 0 1.07-.5 1.07-1.12 0-.67-.48-1.12-1.07-1.12-.64 0-1.07.5-1.07 1.12 0 .67.48 1.12 1.07 1.12z"/><mask id="b" width="17" height="16" x="231" y="33" maskUnits="userSpaceOnUse" style="mask-type:alpha"><path fill="#D9D9D9" d="M231.53 33h16v16h-16z"/></mask><g mask="url(#b)"><path fill="#C5C7CA" d="M240.2 41.4V39a.64.64 0 00-.2-.47.64.64 0 00-.47-.2.65.65 0 00-.47.2.65.65 0 00-.2.47v2.65a.68.68 0 00.2.48l1.87 1.87c.13.12.28.18.47.18.19 0 .35-.06.47-.18a.63.63 0 00.18-.47.63.63 0 00-.18-.46l-1.67-1.67zm-.67 6.27A6.1 6.1 0 01234 44a5.82 5.82 0 01-.47-2.34 6.1 6.1 0 013.66-5.53 5.8 5.8 0 012.34-.47 6.1 6.1 0 015.53 3.66c.32.72.47 1.5.47 2.34a6.08 6.08 0 01-3.66 5.52 5.8 5.8 0 01-2.34.48zm-6.63-9.8a.63.63 0 01-.18-.47c0-.19.06-.34.18-.47l1.9-1.9a.63.63 0 01.47-.18.63.63 0 01.65.65c0 .19-.06.35-.19.47l-1.9 1.9a.63.63 0 01-.46.18.63.63 0 01-.47-.18zm13.27 0a.63.63 0 01-.47.18.63.63 0 01-.47-.18l-1.9-1.9a.63.63 0 01-.18-.47c0-.19.06-.34.18-.47a.63.63 0 01.47-.18c.19 0 .35.06.47.18l1.9 1.9c.12.13.18.28.18.47 0 .19-.06.35-.18.47zm-6.64 8.46c1.3 0 2.4-.45 3.31-1.35.9-.9 1.36-2.01 1.36-3.31 0-1.3-.45-2.4-1.36-3.31-.9-.9-2-1.36-3.3-1.36-1.3 0-2.4.45-3.31 1.36-.9.9-1.36 2-1.36 3.3 0 1.3.45 2.41 1.36 3.32.9.9 2 1.35 3.3 1.35z"/></g><g filter="url(#c)"><rect width="221.79" height="56" x="53.11" y="64.46" fill="#1D1F20" rx="12" shape-rendering="crispEdges"/><rect width="221.49" height="55.7" x="53.26" y="64.61" stroke="#46484B" stroke-width=".3" rx="11.85" shape-rendering="crispEdges"/><rect width="36" height="36" x="63.11" y="74.46" fill="#28292A" rx="6.13"/><rect width="129.79" height="14" x="107.11" y="74.46" fill="#28292A" rx="3"/><rect width="87" height="18" x="107.11" y="92.46" fill="#28292A" rx="3"/><rect width="30" height="18" x="200.24" y="92.46" fill="#052F01" rx="3"/><path fill="#78C86B" d="M203.98 102.42v-1.31h3.62v1.3h-3.62zm7.8-2.25c1.43 0 2.61 1 2.61 2.66 0 1.61-1.16 2.73-2.92 2.73a3.45 3.45 0 01-2.8-1.33l1-.8c.35.5.95.85 1.68.85 1.01 0 1.62-.64 1.62-1.48 0-.92-.81-1.43-1.6-1.43a2 2 0 00-1.34.44l-.75-.27.24-4.32h4.46v1.28h-3.15l-.11 1.85c.38-.12.78-.18 1.07-.18zm7.88 5.56l-1.08-.47 3.76-8.5 1.08.47-3.76 8.5zm-1.85-4.12a2.34 2.34 0 01-2.43-2.39c0-1.3.98-2.37 2.43-2.37 1.32 0 2.41.95 2.41 2.37 0 1.31-.97 2.4-2.41 2.4zm0-1.02c.78 0 1.28-.6 1.28-1.35 0-.8-.56-1.35-1.28-1.35-.76 0-1.26.6-1.26 1.35 0 .8.56 1.35 1.26 1.35zm6.35 4.97a2.34 2.34 0 01-2.42-2.39c0-1.3.98-2.37 2.42-2.37 1.33 0 2.42.95 2.42 2.37 0 1.31-.97 2.4-2.42 2.4zm0-1.03c.78 0 1.3-.6 1.3-1.34 0-.8-.58-1.35-1.3-1.35-.76 0-1.28.6-1.28 1.34 0 .8.58 1.35 1.29 1.35z"/><mask id="d" width="21" height="21" x="244" y="74" maskUnits="userSpaceOnUse" style="mask-type:alpha"><path fill="#D9D9D9" d="M244.89 74.46h20v20h-20z"/></mask><g mask="url(#d)"><path fill="#C5C7CA" d="M255.73 84.96v-3a.8.8 0 00-.24-.59.8.8 0 00-.6-.24.8.8 0 00-.6.24.8.8 0 00-.23.6v3.3a.85.85 0 00.25.61l2.33 2.33c.16.16.35.23.59.23a.8.8 0 00.58-.23.8.8 0 00.23-.58.8.8 0 00-.23-.58l-2.08-2.09zm-.84 7.84a7.61 7.61 0 01-6.9-4.57c-.4-.91-.6-1.9-.6-2.93a7.6 7.6 0 014.57-6.9c.92-.4 1.9-.6 2.93-.6a7.62 7.62 0 016.9 4.57c.4.91.6 1.89.6 2.93a7.62 7.62 0 01-4.57 6.9c-.91.4-1.88.6-2.93.6zm-8.29-12.25a.79.79 0 01-.23-.59.8.8 0 01.23-.58l2.38-2.37a.8.8 0 01.58-.23.79.79 0 01.81.81c0 .24-.07.43-.23.58l-2.37 2.38a.79.79 0 01-.59.23.8.8 0 01-.58-.23zm16.59 0a.8.8 0 01-.59.23.79.79 0 01-.58-.23l-2.38-2.38a.79.79 0 01-.23-.58.79.79 0 01.81-.81.8.8 0 01.59.23l2.38 2.37a.8.8 0 01.22.58.8.8 0 01-.23.59zm-8.3 10.58c1.63 0 3-.56 4.14-1.7a5.63 5.63 0 001.7-4.13c0-1.63-.57-3-1.7-4.14a5.63 5.63 0 00-4.14-1.7c-1.62 0-3 .57-4.13 1.7a5.63 5.63 0 00-1.7 4.14c0 1.62.57 3 1.7 4.13a5.63 5.63 0 004.13 1.7z"/></g></g><g filter="url(#e)"><rect width="270" height="82" x="29" y="106" fill="#1D1F20" rx="16" shape-rendering="crispEdges"/><rect width="268" height="80" x="30" y="107" stroke="url(#f)" stroke-width="2" rx="15" shape-rendering="crispEdges"/><rect width="54" height="54" x="41" y="120" fill="#28292A" rx="6.13"/><rect width="125" height="22" x="103" y="120" fill="#28292A" rx="4.6"/><rect width="91.87" height="24" x="103" y="150" fill="#28292A" rx="4.6"/><rect width="46" height="24" x="201" y="150" fill="#052F01" rx="6.13"/><path fill="#78C86B" d="M208.02 163.44v-1.52h4.22v1.52h-4.22zm6.7 3.56v-7.67l-1.74 1.3-.77-1.2 2.81-2.05h1.32V167h-1.63zm7.25.11c-2.17 0-3.7-1.79-3.7-4.91 0-2.91 1.4-4.92 3.7-4.92 2.17 0 3.7 1.78 3.7 4.92 0 2.9-1.38 4.91-3.7 4.91zm0-1.51c1.29 0 2.04-1.26 2.04-3.4 0-2.16-.78-3.42-2.04-3.42s-2.04 1.26-2.04 3.42c0 2.13.8 3.4 2.04 3.4zm10.04 1.7l-1.26-.54 4.4-9.91 1.25.55-4.4 9.9zm-2.16-4.8a2.73 2.73 0 01-2.83-2.78 2.72 2.72 0 012.83-2.77c1.54 0 2.81 1.1 2.81 2.77a2.73 2.73 0 01-2.8 2.79zm0-1.18c.91 0 1.5-.72 1.5-1.59 0-.93-.66-1.56-1.5-1.56-.88 0-1.47.7-1.47 1.56 0 .94.66 1.59 1.47 1.59zm7.4 5.8a2.73 2.73 0 01-2.8-2.8 2.72 2.72 0 012.8-2.77c1.56 0 2.84 1.11 2.84 2.78a2.73 2.73 0 01-2.83 2.78zm.02-1.21c.9 0 1.5-.7 1.5-1.57 0-.94-.67-1.57-1.5-1.57-.9 0-1.5.7-1.5 1.57 0 .94.67 1.57 1.5 1.57z"/><mask id="g" width="32" height="32" x="255" y="120" maskUnits="userSpaceOnUse" style="mask-type:alpha"><path fill="#D9D9D9" d="M255 120h32v32h-32z"/></mask><g mask="url(#g)"><path fill="#F97936" d="M269.6 138.27l-1.9-1.9a1.28 1.28 0 00-1.87 0c-.26.27-.4.58-.4.95s.13.68.4.95l2.84 2.87a1.28 1.28 0 001.86 0l5.67-5.67c.26-.27.4-.58.4-.95s-.14-.68-.4-.95a1.3 1.3 0 00-.95-.4c-.37 0-.69.13-.95.4l-4.7 4.7zm1.4 11.07c-1.67 0-3.23-.32-4.69-.95a12.2 12.2 0 01-6.36-6.37 11.6 11.6 0 01-.95-4.68c0-1.67.31-3.23.95-4.69a12.17 12.17 0 016.37-6.36c1.45-.64 3.01-.95 4.68-.95s3.23.31 4.68.95a12.2 12.2 0 016.37 6.36c.63 1.46.95 3.02.95 4.69 0 1.66-.32 3.22-.95 4.68a12.2 12.2 0 01-6.37 6.37c-1.45.63-3.01.95-4.68.95zm-13.27-19.6a1.26 1.26 0 01-.37-.94c0-.38.13-.69.37-.93l3.8-3.8c.25-.24.56-.37.94-.37.37 0 .68.13.93.37.24.24.37.56.37.93 0 .38-.13.7-.37.94l-3.8 3.8c-.25.24-.56.36-.94.36-.37 0-.68-.12-.93-.36zm26.53 0c-.24.24-.55.36-.93.36s-.69-.12-.93-.36l-3.8-3.8a1.26 1.26 0 01-.37-.94 1.26 1.26 0 011.3-1.3c.38 0 .7.13.93.37l3.8 3.8c.25.24.37.56.37.93 0 .38-.12.7-.37.94zM271 146.67a9 9 0 006.62-2.72 9 9 0 002.71-6.61 9 9 0 00-2.71-6.62A9 9 0 00271 128a9 9 0 00-6.62 2.72 9 9 0 00-2.71 6.62 9 9 0 002.71 6.61 9 9 0 006.62 2.72z"/></g></g><path fill="url(#h)" d="M0 0h325v44H0z" transform="translate(1 154)"/></g><defs><linearGradient id="f" x1="295.54" x2="31.96" y1="113.84" y2="190.98" gradientUnits="userSpaceOnUse"><stop stop-color="#F97936"/><stop offset="1" stop-color="#FFBD6E"/></linearGradient><linearGradient id="h" x1="162" x2="162" y1="36.5" y2="-3.5" gradientUnits="userSpaceOnUse"><stop stop-color="#1D1F20"/><stop offset=".87" stop-color="#1D1F20" stop-opacity="0"/></linearGradient><filter id="c" width="231.79" height="66" x="48.11" y="60.46" color-interpolation-filters="sRGB" filterUnits="userSpaceOnUse"><feFlood flood-opacity="0" result="BackgroundImageFix"/><feColorMatrix in="SourceAlpha" result="hardAlpha" values="0 0 0 0 0 0 0 0 0 0 0 0 0 0 0 0 0 0 127 0"/><feOffset dy="1"/><feGaussianBlur stdDeviation="2.5"/><feComposite in2="hardAlpha" operator="out"/><feColorMatrix values="0 0 0 0 0.0431373 0 0 0 0 0.0862745 0 0 0 0 0.172549 0 0 0 0.09 0"/><feBlend in2="BackgroundImageFix" result="effect1_dropShadow_2386_496445"/><feBlend in="SourceGraphic" in2="effect1_dropShadow_2386_496445" result="shape"/></filter><filter id="e" width="310" height="122" x="9" y="90" color-interpolation-filters="sRGB" filterUnits="userSpaceOnUse"><feFlood flood-opacity="0" result="BackgroundImageFix"/><feColorMatrix in="SourceAlpha" result="hardAlpha" values="0 0 0 0 0 0 0 0 0 0 0 0 0 0 0 0 0 0 127 0"/><feOffset dy="4"/><feGaussianBlur stdDeviation="10"/><feComposite in2="hardAlpha" operator="out"/><feColorMatrix values="0 0 0 0 0 0 0 0 0 0 0 0 0 0 0 0 0 0 0.19 0"/><feBlend in2="BackgroundImageFix" result="effect1_dropShadow_2386_496445"/><feBlend in="SourceGraphic" in2="effect1_dropShadow_2386_496445" result="shape"/></filter><clipPath id="a"><path fill="#fff" d="M1 0h326v190H1z"/></clipPath></defs></svg>