<svg xmlns="http://www.w3.org/2000/svg" viewBox="0 15 270 270" shape-rendering="geometricPrecision" text-rendering="geometricPrecision"><path d="M222.74 164c5.5-4.32 8.54-11.1 8.13-18.14-.98-17.3-2.99-52.55-4.05-71.21-.47-8.24-5.91-15.36-13.69-17.91-17.86-5.87-51.87-17.03-68.52-22.49-6.73-2.2-14.11-.92-19.68 3.47L11.24 127.17c-3.09 2.43-5.09 6.01-5.57 9.94-.48 3.92.62 7.89 3.03 11.01l79.44 102.8c2.42 3.13 5.97 5.17 9.86 5.65 3.91.5 7.84-.59 10.94-3.03l113.8-89.53z" fill="#8e949c" fill-rule="evenodd"/><path d="M226.6 146.11c-.99-17.31-2.99-52.55-4.05-71.21-.37-6.48-4.64-12.07-10.75-14.08-17.86-5.87-51.87-17.03-68.52-22.49a16.843 16.843 0 00-15.69 2.77L69.9 86.49c2.64 3.47 10.17 13.4 13.4 17.67 1.32 1.74 1.5 4.07.49 6l-9.04 17.09c-.41.77-.33 1.7.2 2.39l44.7 58.92c.52.69 1.4 1.02 2.25.83l18.9-4.1c2.12-.46 4.32.35 5.64 2.08l14.83 19.54 58.82-46.28c4.4-3.46 6.84-8.88 6.51-14.52z" fill="#fff" fill-rule="evenodd"/><path d="M143.77 189.39c-.52-.69-1.4-1.02-2.25-.83l-18.9 4.11c-2.13.46-4.33-.36-5.64-2.09-7.14-9.41-37.55-49.49-44.7-58.92a5.609 5.609 0 01-.49-5.99l9.04-17.1c.41-.77.33-1.7-.2-2.39-3.22-4.24-10.7-14.1-13.37-17.62L13.9 130.54c-2.2 1.73-3.63 4.28-3.97 7.08-.33 2.81.44 5.64 2.17 7.87l79.44 102.8a10.57 10.57 0 007.02 4.03c2.76.34 5.54-.43 7.74-2.16l52.34-41.18-14.86-19.59z" fill="#ececec" fill-rule="evenodd"/><path d="M99.13 139.76a4.25 4.25 0 005.99.75c1.85-1.45 2.18-4.14.73-6.01s-4.13-2.21-5.99-.75a4.307 4.307 0 00-.73 6.01zm9.34 12.09a4.25 4.25 0 005.99.75c1.85-1.45 2.18-4.14.73-6.01s-4.13-2.21-5.99-.75c-1.85 1.45-2.18 4.15-.73 6.01zm9.34 12.09a4.25 4.25 0 005.99.75c1.85-1.45 2.18-4.14.73-6.01s-4.13-2.21-5.99-.75c-1.85 1.45-2.18 4.14-.73 6.01zm-12.91-38.38a4.25 4.25 0 005.99.75c1.85-1.45 2.18-4.14.73-6.01s-4.14-2.21-5.99-.75c-1.85 1.45-2.18 4.15-.73 6.01zm9.51 12.3a4.252 4.252 0 005.99.76 4.317 4.317 0 00.73-6.01 4.251 4.251 0 00-5.99-.76 4.307 4.307 0 00-.73 6.01zm9.51 12.31a4.25 4.25 0 005.99.75c1.84-1.46 2.18-4.14.73-6.01s-4.13-2.21-5.99-.75c-1.85 1.45-2.18 4.14-.73 6.01zm9.51 12.3a4.25 4.25 0 005.99.75c1.85-1.45 2.18-4.14.73-6.01s-4.13-2.21-5.99-.75c-1.85 1.45-2.18 4.14-.73 6.01z" fill="#adb2b8" fill-rule="evenodd"/><path d="M79.06 181.76a4.402 4.402 0 00-6.17-.85c-1.94 1.46-2.32 4.23-.85 6.17s4.23 2.32 6.17.85 2.32-4.24.85-6.17z" fill="#ff6f00" fill-rule="evenodd"/><path d="M77.57 182.88a2.548 2.548 0 01-4.06 3.08c-.85-1.12-.63-2.71.49-3.56s2.72-.63 3.57.49z" fill="#ff9d00" fill-rule="evenodd"/><path d="M83.81 169.37c.24-.13.41-.35.48-.62.06-.27 0-.54-.17-.76l-2.84-3.76a.928.928 0 00-1.18-.26l-27.96 14.85c-.24.13-.42.35-.48.62-.06.26 0 .54.17.76l2.82 3.73c.28.36.77.47 1.18.25l27.98-14.81zm5.88 5.97c-1.46-1.93-4.23-2.31-6.17-.84-1.94 1.46-2.32 4.23-.85 6.17s4.24 2.31 6.18.85a4.421 4.421 0 00.84-6.18z" fill="#ff6f00" fill-rule="evenodd"/><path fill="#ff9d00" fill-rule="evenodd" d="M81.98 168.23l-26.33 13.94-1.67-2.23 26.29-13.97 1.71 2.26zm6.23 8.24c.85 1.12.63 2.72-.48 3.57-1.12.85-2.72.62-3.57-.49-.85-1.12-.62-2.71.49-3.56 1.12-.86 2.71-.63 3.56.49z"/><path d="M76.78 160.06c.24-.13.41-.35.47-.62.07-.26 0-.54-.16-.76L72 151.94a.928.928 0 00-1.18-.26l-27.96 14.85c-.24.13-.41.35-.48.62-.06.26 0 .54.17.76l5.06 6.72c.28.36.77.48 1.18.26l27.98-14.82z" fill="#ff6f00" fill-rule="evenodd"/><path fill="#ff9d00" fill-rule="evenodd" d="M74.94 158.92l-26.32 13.94-3.92-5.21 26.29-13.96 3.95 5.23z"/><path d="M68.06 148.51a.92.92 0 00.31-1.38l-6.21-8.23a.928.928 0 00-1.18-.26l-27.96 14.85c-.24.13-.42.35-.48.62-.06.26 0 .54.17.76l6.19 8.2c.27.36.77.48 1.18.26l27.98-14.82z" fill="#ff6f00" fill-rule="evenodd"/><path fill="#ff9d00" fill-rule="evenodd" d="M66.22 147.38l-26.31 13.94-5.06-6.7 26.3-13.96 5.07 6.72z"/><path d="M58.55 135.91c.23-.12.41-.35.47-.62.07-.27 0-.55-.17-.76 0 0-14.3-19.05-18.6-24.74-.64.5-24.9 19.64-26.06 20.48 3.03 4 15.19 20.2 15.19 20.2.28.36.77.48 1.18.26l27.99-14.82z" fill="#ff6f00" fill-rule="evenodd"/><path d="M56.71 134.78l-26.32 13.93-14.74-19.59c.99-.78 22.4-17.64 23.15-18.24l17.92 23.89z" fill="#ff9d00" fill-rule="evenodd"/><circle r="14.12" transform="matrix(.868718-.495307 0.495307 0.868718 195.841319 83.823694)" fill="#e86d00"/><circle r="7.04" transform="matrix(.264041-.964511 0.964511 0.264041 195.844849 83.824687)" fill="#edeff3"/></svg>