<svg viewBox="0 -15 270 270" fill="none" xmlns="http://www.w3.org/2000/svg"><g fill-rule="evenodd"><path d="M237.14 155.67c-33.57 12.12-74.67 72.87-50.95 84.35 21.72 10.52 45.1 1.23 59.75-15.01 28.55-31.66 18-79.01-8.8-69.34zM86.51 24.65c35.55-10.93 119.83-9.82 151.37 30.15 52.45 66.46-42.94 77.26-77.68 153.66-17.69 38.89-71.35 48.18-117.93-6.29-52.3-61.18-37.14-152.5 44.24-177.52z" fill="#edeff3"/><path d="M44.13 36.71l3.92 10.76c.04.1.09.19.17.27.07.07.16.13.26.17l10.76 3.92-10.76 3.93c-.1.04-.19.09-.26.17a.77.77 0 00-.17.27l-3.92 10.76-3.92-10.76a.77.77 0 00-.17-.27.782.782 0 00-.26-.17l-10.76-3.93 10.76-3.92c.1-.03.19-.09.26-.17a.69.69 0 00.17-.27l3.92-10.76zm193.94 137.26l3.32 9.1c.03.08.08.16.14.22s.14.11.22.14l9.1 3.32-9.1 3.32a.594.594 0 00-.36.37l-3.32 9.1-3.32-9.1a.678.678 0 00-.14-.23.636.636 0 00-.22-.14l-9.1-3.32 9.1-3.32c.08-.03.16-.08.22-.14s.11-.14.14-.22l3.32-9.1zM81.52 34.95l2.25 6.18c.02.06.05.11.1.15s.09.08.15.1l6.18 2.25-6.18 2.25c-.06.02-.11.06-.15.1s-.08.09-.1.15l-2.25 6.18-2.25-6.18a.307.307 0 00-.1-.15.396.396 0 00-.15-.1l-6.18-2.25 6.18-2.25c.06-.02.11-.05.15-.1s.08-.09.1-.15l2.25-6.18zm125.59 167.93c1.93 0 3.49 1.56 3.49 3.49s-1.56 3.49-3.49 3.49-3.49-1.56-3.49-3.49 1.56-3.49 3.49-3.49" fill="#ff9d00"/></g></svg>