<svg id="epqcluLnOGW1" xmlns="http://www.w3.org/2000/svg" viewBox="0 0 270 270" shape-rendering="geometricPrecision" text-rendering="geometricPrecision"><path d="M48.92 44.36l17.15 47.4a3.387 3.387 0 004.33 2.03 3.387 3.387 0 002.03-4.33l-17.15-47.4a3.387 3.387 0 00-4.33-2.03 3.387 3.387 0 00-2.03 4.33z" fill="#a6a6a6" fill-rule="evenodd"/><path d="M53.21 20.27c-9.44-1.04-17.95 5.79-18.98 15.23s5.79 17.95 15.23 18.98 17.95-5.79 18.98-15.23-5.79-17.95-15.23-18.98z" fill="#e86d00" fill-rule="evenodd"/><circle r="12.64" transform="matrix(.937828-.347099 0.347099 0.937828 51.333303 37.379414)" fill="#ff9200"/><path d="M103.28 189.54c26.67-.01 50.82-5.11 68.32-15.08 17.98-10.25 29.03-25.61 29.03-45.88S189.58 92.95 171.6 82.7c-17.52-9.98-41.7-15.08-68.4-15.08s-50.87 5.04-68.39 15C16.83 92.84 5.77 108.2 5.77 128.58c0 29.43 23.16 48.48 56.86 56.53-.58 7.87-2.11 15.35-6.19 22.24-.47.79-.41 1.77.11 2.51.54.74 1.47 1.09 2.36.89 17.27-3.87 32.55-11.32 44.38-21.21z" fill="#8e949c" fill-rule="evenodd"/><path d="M67.31 183.45c.07-1.12-.68-2.12-1.78-2.36-32.32-7.25-55.19-24.6-55.19-52.51 0-18.66 10.26-32.63 26.73-41.99 16.92-9.62 40.32-14.4 66.13-14.4s49.2 4.83 66.14 14.48c16.45 9.38 26.73 23.35 26.73 41.91s-10.27 32.52-26.73 41.91c-16.94 9.65-40.32 14.48-66.14 14.48h-.74c-.54 0-1.07.19-1.48.55-10.3 8.77-23.42 15.57-38.25 19.58 3.01-6.8 4.16-14.06 4.59-21.64z" fill="#fff" fill-rule="evenodd"/><circle r="12.69" transform="translate(145.86 127.99)" fill="#cacaca"/><circle r="12.69" transform="translate(102 127.99)" fill="#cacaca"/><circle r="12.69" transform="translate(58.13 127.99)" fill="#cacaca"/><circle id="epqcluLnOGW29" r="12.69" transform="translate(58.13 127.99)" fill="#ff9200"/></svg>