<svg id="epqcluLnOGW1" xmlns="http://www.w3.org/2000/svg" viewBox="0 0 270 270" shape-rendering="geometricPrecision" text-rendering="geometricPrecision"><path d="M227.78 129.65l-11.6 32.08c-.43 1.19.19 2.5 1.37 2.93 1.19.43 2.5-.19 2.93-1.37l11.6-32.08c.43-1.19-.18-2.5-1.37-2.93s-2.5.19-2.93 1.37z" fill="#a6a6a6" fill-rule="evenodd"/><path d="M182.42 225.71c8.06 6.67 18.43 11.71 30.14 14.33a2.29 2.29 0 002.47-3.4c-2.6-4.38-3.62-9.12-4.05-14.1 22.86-5.63 38.44-18.76 38.44-38.83 0-14.07-7.61-24.69-20.02-31.75-11.95-6.79-28.44-10.25-46.65-10.25s-34.71 3.49-46.66 10.3c-12.41 7.08-20.02 17.7-20.02 31.69s7.61 24.61 20.02 31.69c11.88 6.77 28.24 10.26 46.33 10.3z" fill="#8e949c" fill-rule="evenodd"/><path d="M208.07 218.53a2.283 2.283 0 00-1.78 2.36c.27 4.7.95 9.21 2.59 13.48-9.33-2.72-17.59-7.11-24.14-12.69-.42-.35-.95-.55-1.5-.55h-.49c-17.33 0-33.03-3.23-44.39-9.7-10.9-6.21-17.72-15.44-17.72-27.72s6.82-21.51 17.72-27.72c11.36-6.48 27.06-9.7 44.39-9.7s33.03 3.19 44.39 9.65c10.89 6.19 17.71 15.42 17.71 27.77 0 18.55-15.28 30-36.77 34.82z" fill="#ececec" fill-rule="evenodd"/><path d="M218.48 172.81c0-1.11-.9-2.01-2.01-2.01h-63.91c-1.11 0-2.01.9-2.01 2.01v4.54c0 1.11.9 2.01 2.01 2.01h63.91c1.11 0 2.01-.9 2.01-2.01v-4.54zm-26.73 17.4c0-.53-.21-1.04-.59-1.42s-.89-.59-1.42-.59h-37.17c-.53 0-1.04.21-1.42.59s-.59.89-.59 1.42v4.54c0 .53.21 1.04.59 1.42s.89.59 1.42.59h37.17c.53 0 1.04-.21 1.42-.59s.59-.89.59-1.42v-4.54z" fill="#adb2b8" fill-rule="evenodd"/><path d="M229.1 114.17c-6.79.75-11.71 6.87-10.96 13.66s6.87 11.71 13.66 10.96 11.71-6.87 10.96-13.66-6.87-11.71-13.66-10.96z" fill="#e86d00" fill-rule="evenodd"/><path d="M229.6 118.71c4.29-.47 8.15 2.63 8.62 6.91s-2.63 8.15-6.91 8.62-8.15-2.63-8.62-6.92 2.63-8.15 6.91-8.62z" fill="#ff9200" fill-rule="evenodd"/></svg>