<svg id="epqcluLnOGW1" xmlns="http://www.w3.org/2000/svg" viewBox="0 0 270 270" shape-rendering="geometricPrecision" text-rendering="geometricPrecision"><path d="M78.9 230.89c4.65-5.04-2.33-24.15-15.94-37.14-12.43-11.87-41.44-34.56-48.95-21.39-10 17.55 12.54 45.12 21.05 51.6 17.91 13.63 39.18 11.97 43.83 6.93zM236.53 62.36c43.39 43.68-5.07 147-65.96 173.77-79.03 34.75-40.9-45.74-116.41-79.6C15.73 139.29-18.97 71.72 45 37.77c51.26-27.19 140.72-26.56 191.53 24.59z" fill="#edeff3" fill-rule="evenodd"/><path d="M207.36 56.17l3.43 9.41c.03.09.08.17.15.23.06.06.14.12.23.15l9.42 3.43-9.42 3.44c-.09.03-.17.08-.23.15-.07.07-.12.15-.15.23l-3.43 9.41-3.43-9.41a.513.513 0 00-.15-.23.763.763 0 00-.23-.15l-9.42-3.44 9.42-3.43c.09-.03.17-.08.23-.15.07-.07.12-.14.15-.23l3.43-9.41zM108.3 201.35l3.41 9.33c.03.08.08.16.15.23s.14.11.23.15l9.33 3.41-9.33 3.4c-.08.03-.16.08-.23.15s-.11.14-.15.23l-3.41 9.33-3.41-9.33c-.03-.09-.08-.17-.15-.23s-.14-.11-.23-.15l-9.33-3.4 9.33-3.41c.08-.03.16-.08.23-.15s.11-.14.15-.23l3.41-9.33zM22.22 54.14l2.28 6.24c.02.06.05.11.1.15s.1.08.15.1l6.24 2.28-6.24 2.27c-.06.02-.11.06-.15.1s-.08.1-.1.15l-2.28 6.24-2.28-6.24a.307.307 0 00-.1-.15.492.492 0 00-.15-.1l-6.24-2.27 6.24-2.28c.06-.02.11-.05.15-.1s.08-.1.1-.15l2.28-6.24zm162.67-8.12a3.519 3.519 0 110 7.04c-1.94 0-3.52-1.58-3.52-3.52s1.58-3.52 3.52-3.52" fill="#ff9d00" fill-rule="evenodd"/></svg>