<svg xmlns="http://www.w3.org/2000/svg" width="150" height="150" fill="none"><g clip-path="url(#a)"><path fill="#F3F5F7" stroke="#fff" stroke-width="4" d="M71.333 3.125a6.54 6.54 0 017.334 0l11.969 8.086a10.548 10.548 0 006.105 1.808l14.401-.273c2.664-.05 5.108 1.527 6.178 4.014l5.737 13.332a10.654 10.654 0 004.158 4.84l12.261 7.628c2.276 1.416 3.492 4.087 3.058 6.77l-2.316 14.345a10.748 10.748 0 00.901 6.327l6.229 13.106a6.746 6.746 0 01-1.049 7.372l-9.635 10.804a10.723 10.723 0 00-2.634 5.819l-1.782 14.424c-.334 2.695-2.243 4.907-4.816 5.617l-13.894 3.833a10.596 10.596 0 00-5.348 3.467l-9.226 11.161a6.556 6.556 0 01-7.04 2.089l-13.742-4.356a10.539 10.539 0 00-6.364 0l-13.742 4.356a6.556 6.556 0 01-7.04-2.089l-9.226-11.161a10.597 10.597 0 00-5.348-3.467l-13.894-3.833c-2.573-.71-4.482-2.922-4.815-5.617l-1.783-14.424a10.722 10.722 0 00-2.634-5.819L3.7 90.48a6.743 6.743 0 01-1.049-7.372L8.88 70.002a10.752 10.752 0 00.901-6.327L7.466 49.329c-.433-2.682.782-5.353 3.058-6.77l12.261-7.627a10.659 10.659 0 004.158-4.84L32.68 16.76c1.07-2.487 3.514-4.064 6.178-4.013l14.401.272a10.548 10.548 0 006.105-1.808l11.97-8.086z"/><path fill="#000" d="M50.001 116.668c-2.291 0-4.252-.815-5.883-2.446-1.633-1.633-2.45-3.596-2.45-5.887V66.668c0-2.292.817-4.254 2.45-5.888 1.63-1.63 3.592-2.445 5.883-2.445h4.167V50c0-5.764 2.032-10.677 6.096-14.741 4.06-4.061 8.973-6.092 14.737-6.092 5.764 0 10.678 2.03 14.742 6.092 4.061 4.064 6.092 8.977 6.092 14.741v8.334H100c2.292 0 4.254.815 5.888 2.446 1.63 1.633 2.446 3.595 2.446 5.887v41.667c0 2.291-.816 4.254-2.446 5.887-1.634 1.631-3.596 2.446-5.888 2.446H50zm0-8.333h50V66.668h-50v41.667zm25-12.5c2.292 0 4.254-.816 5.888-2.446 1.63-1.633 2.446-3.596 2.446-5.888s-.816-4.254-2.446-5.887c-1.633-1.63-3.596-2.446-5.888-2.446s-4.253.815-5.883 2.446c-1.633 1.633-2.45 3.596-2.45 5.887s.817 4.254 2.45 5.888c1.63 1.63 3.592 2.446 5.883 2.446zm-12.5-37.5h25V50c0-3.472-1.215-6.423-3.646-8.854-2.43-2.43-5.381-3.646-8.854-3.646-3.472 0-6.423 1.216-8.854 3.646-2.43 2.43-3.646 5.382-3.646 8.854v8.334z"/></g><defs><clipPath id="a"><path fill="#fff" d="M0 0h150v150H0z"/></clipPath></defs></svg>