<svg id="e9x3257YUdr1" xmlns="http://www.w3.org/2000/svg" viewBox="0 0 270 270" shape-rendering="geometricPrecision" text-rendering="geometricPrecision"><path d="M178.4 32.41c-4.92 5.15 11.35 30.05 25.75 43.33 13.16 12.14 40.57 30.18 48.52 16.72 10.58-17.94-2.33-45.81-11.21-52.6-28.95-22.15-58.13-12.59-63.05-7.44zM21.15 187.17C5.52 151.96 2.89 58.41 90.23 32.4c87.34-26 43.3 46.76 123.24 81.37 40.69 17.62 62.7 85.76-6.58 117.46-69.29 31.7-166.95-1.69-185.74-44.06" fill="#edeff3" fill-rule="evenodd"/><path d="M200.72 219.39l-3.94-10.79a.77.77 0 00-.17-.27.899.899 0 00-.26-.17l-10.79-3.94 10.79-3.94c.1-.04.19-.09.26-.17a.77.77 0 00.17-.27l3.94-10.79 3.94 10.79c.04.1.09.19.17.27.07.07.17.13.26.17l10.79 3.94-10.79 3.94c-.1.03-.19.09-.26.17a.77.77 0 00-.17.27l-3.94 10.79zm-20.7-28.32l-1.66-4.55s-.04-.08-.07-.11-.07-.06-.11-.07l-4.55-1.66 4.55-1.66s.08-.04.11-.07.06-.07.07-.11l1.66-4.55 1.66 4.55s.04.08.07.11.07.06.11.07l4.55 1.66-4.55 1.66s-.08.04-.11.07-.06.07-.07.11l-1.66 4.55zM71.7 88.14l-3.16-8.65c-.03-.08-.08-.15-.14-.21s-.13-.11-.21-.14l-8.65-3.16 8.65-3.15c.08-.03.15-.08.21-.14s.11-.13.14-.21l3.16-8.65 3.16 8.65c.03.08.08.15.14.21s.13.11.21.14l8.65 3.15-8.65 3.16c-.08.03-.15.08-.21.14s-.11.13-.14.21l-3.16 8.65zm29.87-29.44c-1.93 0-3.5-1.57-3.5-3.5s1.57-3.5 3.5-3.5 3.5 1.57 3.5 3.5-1.57 3.5-3.5 3.5" fill="#ff9d00" fill-rule="evenodd"/><path d="M42.3 205.94s4.02-3.21 10.9-8.7c1.51-1.2 1.75-3.4.55-4.9s-3.39-1.75-4.9-.55c-6.88 5.5-10.9 8.7-10.9 8.7-1.51 1.2-1.75 3.4-.55 4.9s3.39 1.75 4.9.55zm21.8-17.41c3.35-2.67 7-5.58 10.91-8.7 1.5-1.2 1.75-3.4.55-4.9s-3.39-1.75-4.9-.55c-3.91 3.12-7.56 6.03-10.9 8.7-1.51 1.2-1.76 3.4-.56 4.9s3.4 1.75 4.9.55zm21.81-17.41c3.51-2.8 7.15-5.71 10.9-8.7 1.51-1.2 1.75-3.4.55-4.9s-3.39-1.75-4.9-.55c-3.75 3-7.39 5.9-10.9 8.7-1.51 1.2-1.75 3.4-.55 4.9s3.39 1.75 4.9.55zm21.8-17.4c3.58-2.85 7.22-5.76 10.91-8.7 1.5-1.2 1.75-3.4.55-4.9s-3.4-1.75-4.9-.55c-3.69 2.94-7.33 5.85-10.91 8.7-1.5 1.2-1.75 3.4-.55 4.9s3.4 1.75 4.9.55zm21.81-17.41c3.62-2.89 7.25-5.8 10.9-8.7 1.51-1.2 1.75-3.4.55-4.9s-3.39-1.75-4.9-.55c-3.65 2.91-7.28 5.81-10.9 8.7-1.51 1.2-1.75 3.4-.55 4.9s3.39 1.75 4.9.55zm21.8-17.41c3.66-2.92 7.3-5.83 10.9-8.7 1.51-1.2 1.76-3.4.56-4.9-1.21-1.5-3.4-1.75-4.9-.55-3.61 2.88-7.24 5.78-10.91 8.7-1.51 1.2-1.75 3.4-.55 4.9s3.4 1.75 4.9.55zm21.81-17.41c3.71-2.96 7.35-5.87 10.9-8.7 1.51-1.2 1.75-3.4.55-4.9s-3.39-1.75-4.9-.55c-3.55 2.83-7.19 5.74-10.9 8.7-1.51 1.2-1.75 3.4-.55 4.9s3.39 1.75 4.9.55zm21.8-17.41c3.79-3.03 7.45-5.94 10.9-8.7 1.51-1.2 1.76-3.4.55-4.9a3.492 3.492 0 00-4.9-.55c-3.45 2.76-7.1 5.67-10.9 8.7-1.51 1.2-1.75 3.4-.55 4.9s3.39 1.75 4.9.55zm21.81-17.4c4.09-3.27 7.76-6.19 10.9-8.7 1.51-1.2 1.75-3.4.55-4.9s-3.39-1.75-4.9-.55c-3.14 2.51-6.81 5.44-10.9 8.7a3.475 3.475 0 00-.55 4.9c1.2 1.5 3.39 1.75 4.9.55zm21.8-17.41c.99-.79 1.51-1.2 1.51-1.2 1.51-1.2 1.75-3.4.55-4.9s-3.39-1.75-4.9-.55c0 0-.52.42-1.51 1.21-1.51 1.2-1.75 3.4-.55 4.9s3.39 1.75 4.9.55z" fill="#d5dbe4" fill-rule="evenodd"/></svg>