<svg id="e9x3257YUdr1" xmlns="http://www.w3.org/2000/svg" viewBox="5 -5 270 270" shape-rendering="geometricPrecision" text-rendering="geometricPrecision"><path d="M106.21 155.35c-1.26 3.01-5.73 13.84-10.18 24.64-5.17 12.55 31.47-3.16 34.44-10.23 15.94-37.91 66.68-158.54 66.68-158.54.44-1.05-.05-2.27-1.11-2.71-3.18-1.34-8.05-1.14-13.55.87-7.64 2.79-16.66 9.05-23.82 18.8-17.33 23.59-54.5 98.87-56.35 103.27-.24.57-.37 1.68-.2 3.17.27 2.39 1.16 6.2 2.06 10 .74 3.13 1.48 6.25 1.84 8.52.14.9.18 2.03.19 2.2z" fill="#8e949c" fill-rule="evenodd"/><path d="M106.18 132.95c2.33-5.36 38.77-79.1 55.83-102.32 6.59-8.97 14.87-14.79 21.91-17.36 3.24-1.19 6.18-1.71 8.5-1.45-7.03 16.71-52.05 123.77-66.84 158.92-2.95 7.01-30.54 22.53-25.19 9.57 4.32-10.5 8.55-20.73 9.7-23.46.24-.57.37-1.68.2-3.17-.27-2.39-1.16-6.2-2.06-10-.74-3.13-1.48-6.25-1.84-8.52-.14-.89-.18-2.01-.19-2.2z" fill="#ececec" fill-rule="evenodd"/><path d="M107.7 240.21c-10.61-4.46-15.12-17.84-10.07-29.86s17.77-18.15 28.38-13.69c7.07 2.97 16.53-6.96 4.97-11.82a28.792 28.792 0 00-8.59-2.13l7.76-18.46-9.19-2.45-14.03 16.04-7.89-.67c-5.62 13.65-11.8 28.67-11.85 28.79-7.8 18.54-.84 39.19 15.54 46.07 15 6.31 12.51-8.65 4.97-11.82z" fill="#eb9000" fill-rule="evenodd"/><path d="M130.99 184.84c-2.79-1.17-10.51 9.5-4.97 11.82 10.61 4.46 15.12 17.84 10.07 29.86-5.06 12.02-17.77 18.15-28.39 13.69-5.53-2.33-15.03 7.59-4.97 11.82 16.37 6.89 36-2.58 43.79-21.12 7.8-18.54.84-39.19-15.54-46.07z" fill="#eb9000" fill-rule="evenodd"/><path d="M103.91 250.12c-15.39-6.47-21.76-25.94-14.43-43.37.05-.12 5.82-14.14 11.28-27.4l6.38.54c.66.06 1.3-.2 1.74-.7l13.19-15.08 5.65 1.51-6.84 16.27c-.26.61-.21 1.3.13 1.87s.93.93 1.59 1c2.7.24 5.38.89 7.97 1.98 4.14-.26 3.65-2.19 1.61-3.82-2.1-.89-4.26-1.52-6.44-1.91l6.72-15.97c.23-.55.21-1.18-.05-1.72s-.75-.93-1.33-1.09l-9.19-2.45c-.76-.2-1.57.05-2.09.64l-13.34 15.25-6.85-.58c-.9-.08-1.75.44-2.09 1.27-5.62 13.64-11.8 28.65-11.85 28.78-8.27 19.66-.8 41.68 16.64 48.78 1.86-.71 4.18-1.48 1.6-3.81z" fill="#e86d00" fill-rule="evenodd"/><path d="M132.18 182.93c-2.1-.89-4.2 2.73-1.61 3.82 15.39 6.47 21.76 25.93 14.43 43.36s-25.7 26.49-41.09 20.02c-12.63-5.31-5.33 2.05-1.6 3.81 17.36 7.3 38.24-2.57 46.51-22.23s.72-41.48-16.64-48.78z" fill="#e86d00" fill-rule="evenodd"/><path d="M108.89 238.3c-9.63-4.05-13.55-16.25-8.96-27.15 4.59-10.91 16.05-16.63 25.67-12.58 7.1 2.98 10.19-.2 1.6-3.81-11.6-4.88-25.57 1.66-31.09 14.79-5.52 13.14-.42 27.7 11.17 32.58 6.43 2.7 7.6-1.3 1.61-3.82z" fill="#e86d00" fill-rule="evenodd"/><path d="M127.2 194.75c-4.83-.75-5.79.31-1.6 3.81 9.63 4.05 13.55 16.25 8.96 27.15-4.59 10.91-16.05 16.63-25.67 12.58-3.75-.48-5.48 1.64-1.61 3.82 11.6 4.88 25.57-1.66 31.1-14.8 5.52-13.13.42-27.69-11.18-32.57z" fill="#e86d00" fill-rule="evenodd"/></svg>