<svg id="e9x3257YUdr1" xmlns="http://www.w3.org/2000/svg" viewBox="0 0 270 270" shape-rendering="geometricPrecision" text-rendering="geometricPrecision"><path d="M100.8 148.76c2.09.96 4.9 2.51 7.72 4.06 3.42 1.89 6.85 3.77 9.08 4.67 1.39.56 2.49.74 3.11.66 4.74-.6 87.24-16.18 114.62-26.53 11.31-4.28 19.76-11.28 24.51-17.89 3.42-4.76 4.91-9.4 4.48-12.82a2.063 2.063 0 00-2.31-1.79s-129.83 16.46-170.62 21.63c-7.6.96-32.58 32.04-19.11 30.43 11.6-1.38 23.23-2.78 26.47-3.19.16.05 1.24.4 2.07.77z" fill="#8e949c" fill-rule="evenodd"/><path d="M118.23 153.26c-2.09-.96-4.9-2.51-7.72-4.06-3.42-1.89-6.85-3.77-9.08-4.68-1.39-.56-2.49-.74-3.11-.66-2.94.37-13.93 1.69-25.2 3.04-13.93 1.66 8.44-20.74 15.98-21.7 37.83-4.8 153.05-19.4 171.03-21.68-.37 2.3-1.66 4.99-3.68 7.79-4.37 6.09-12.19 12.5-22.61 16.44-26.95 10.19-107.77 25.48-113.56 26.28-.17-.06-1.24-.4-2.07-.77z" fill="#fff" fill-rule="evenodd"/><path d="M17.39 123.75c1.45 11.42 13.12 19.36 26.06 17.72 12.93-1.64 22.26-12.24 20.81-23.66-.96-7.61 11.15-14.05 12.73-1.61.38 3.01.28 5.98-.25 8.85l19.87-2.52-.11 9.51-19.22 9.21-1.47 7.79c-14.65 1.75-30.78 3.67-30.92 3.68-19.96 2.53-37.97-9.72-40.2-27.34-2.05-16.15 11.69-9.72 12.72-1.61z" fill="#ff9d00" fill-rule="evenodd"/><path d="M76.98 116.2c.38 3.01-11.97 7.57-12.73 1.61-1.45-11.42-13.12-19.36-26.06-17.72s-22.26 12.24-20.81 23.66c.75 5.95-11.35 12.44-12.72 1.61-2.23-17.62 12.15-33.98 32.11-36.51s37.97 9.72 40.2 27.34z" fill="#ff9d00" fill-rule="evenodd"/><path d="M6.82 124.73c2.1 16.56 19.14 27.93 37.89 25.55.13-.02 15.19-1.8 29.42-3.5l1.19-6.29c.12-.65.54-1.2 1.14-1.48l18.07-8.65.06-5.84-17.51 2.22c-.65.08-1.31-.15-1.76-.63s-.65-1.15-.53-1.8c.49-2.67.59-5.42.24-8.21 1.36-3.91 3.09-2.93 4.11-.52.29 2.27.32 4.51.11 6.71l17.19-2.18c.59-.08 1.19.11 1.64.51s.7.97.69 1.57l-.11 9.51c0 .79-.47 1.5-1.18 1.84l-18.28 8.75-1.28 6.76a2.06 2.06 0 01-1.79 1.67c-14.65 1.75-30.77 3.66-30.9 3.68-21.16 2.68-40.37-10.43-42.52-29.14 1.18-1.61 2.54-3.63 4.1-.52z" fill="#e86d00" fill-rule="evenodd"/><path d="M79.14 115.57c.29 2.27-3.76 3.31-4.11.52-2.1-16.56-19.13-27.93-37.89-25.55s-32.42 17.64-30.32 34.2c1.72 13.59-3.4 4.58-4.1.52-2.37-18.68 12.75-36.14 33.9-38.82 21.16-2.68 40.15 10.46 42.52 29.14z" fill="#e86d00" fill-rule="evenodd"/><path d="M19.55 123.12c1.31 10.36 12.01 17.42 23.75 15.93s20.33-10.99 19.02-21.35c-.97-7.64 2.93-9.77 4.1-.52 1.58 12.48-8.47 24.19-22.6 25.98-14.14 1.79-26.79-7.03-28.38-19.51-.88-6.91 3.29-6.97 4.11-.52z" fill="#e86d00" fill-rule="evenodd"/><path d="M66.41 117.18c-.57 4.85-1.85 5.49-4.1.52-1.31-10.36-12.01-17.42-23.75-15.93s-20.33 10.99-19.02 21.35c-.55 3.74-3.05 4.84-4.11.52-1.58-12.48 8.47-24.19 22.61-25.98 14.13-1.79 26.79 7.04 28.37 19.52z" fill="#e86d00" fill-rule="evenodd"/><path d="M176.46 140.48l7.84-18.11c.15-.35.46-.58.83-.65 1.37-.25 2.72-.5 4.01-.76a.6.6 0 01.56.22c.14.16.16.4.08.6l-7.48 17.29c-1.91.47-3.86.94-5.84 1.42zm-9.41 2.17l8.1-18.67c.15-.34.45-.6.83-.65 1.34-.24 2.66-.45 4-.69.2-.04.42.05.54.21.14.17.17.39.08.6l-7.74 17.88c-1.92.45-3.86.89-5.8 1.33zm-9.68 2.13l8.33-19.24c.15-.35.47-.6.85-.66 1.29-.2 2.62-.42 3.96-.64.21-.04.42.05.56.22.12.16.15.38.06.59l-8 18.48c-1.93.43-3.86.85-5.76 1.25zm-10.01 2.11l8.62-19.87c.14-.36.48-.63.86-.66 1.19-.18 2.52-.36 3.92-.59.2-.02.42.06.55.22.13.18.16.4.08.58l-8.28 19.13c-1.96.41-3.88.8-5.74 1.19z" fill="#adb2b8" fill-rule="evenodd"/><path d="M128.84 125.89c-4.85-2.04-10.44.25-12.49 5.11s.24 10.46 5.08 12.5c4.85 2.04 10.45-.25 12.49-5.1s-.24-10.46-5.09-12.5z" transform="translate(.000001 0)" fill="#adb2b8" fill-rule="evenodd"/><path d="M127.88 128.2c3.58 1.51 5.26 5.64 3.75 9.23s-5.64 5.28-9.22 3.77-5.26-5.64-3.75-9.22 5.64-5.28 9.22-3.77z" fill="#fff" fill-rule="evenodd"/></svg>